<svg xmlns="http://www.w3.org/2000/svg" width="1024" height="1024" viewBox="0 0 1024 1024" version="1.1"><path d="M 487.250 137.728 C 489.313 137.944, 492.688 137.944, 494.750 137.728 C 496.813 137.513, 495.125 137.336, 491 137.336 C 486.875 137.336, 485.188 137.513, 487.250 137.728 M 506.287 153.740 C 509.469 153.939, 514.419 153.937, 517.287 153.736 C 520.154 153.535, 517.550 153.372, 511.500 153.374 C 505.450 153.376, 503.104 153.541, 506.287 153.740 M 504.231 225.250 L 504.462 249.500 504.749 225.792 L 505.036 202.083 512.768 201.743 L 520.500 201.402 512.250 201.201 L 504 201 504.231 225.250 M 782.494 378.750 L 782.500 504.500 785.262 504.622 C 787.785 504.733, 787.807 504.706, 785.516 504.306 L 783.008 503.868 782.748 378.434 L 782.488 253 782.494 378.750 M 504.242 380.437 L 504 496.374 500.750 493.439 C 497.577 490.573, 497.583 490.594, 501 494.308 L 504.500 498.111 504.758 439.479 C 504.900 407.230, 504.896 354.668, 504.750 322.673 C 504.603 290.678, 504.375 316.672, 504.242 380.437 M 286 279.500 C 292.307 285.825, 297.692 291, 297.967 291 C 298.242 291, 293.307 285.825, 287 279.500 C 280.693 273.175, 275.308 268, 275.033 268 C 274.758 268, 279.693 273.175, 286 279.500 M 766.246 387.237 L 766 503.975 730.250 504.250 L 694.500 504.526 730.281 504.763 C 758.162 504.948, 766.168 504.724, 766.539 503.750 C 766.801 503.063, 766.897 450.300, 766.753 386.500 L 766.492 270.500 766.246 387.237 M 263 278.500 C 266.543 282.075, 269.667 285, 269.942 285 C 270.217 285, 267.543 282.075, 264 278.500 C 260.457 274.925, 257.333 272, 257.058 272 C 256.783 272, 259.457 274.925, 263 278.500 M 737.493 300.250 L 710.500 327.500 737.750 300.507 C 763.073 275.423, 765.450 273, 764.743 273 C 764.602 273, 752.339 285.262, 737.493 300.250 M 706.500 309 C 694.960 320.550, 685.743 330, 686.018 330 C 686.293 330, 695.960 320.550, 707.500 309 C 719.040 297.450, 728.257 288, 727.982 288 C 727.707 288, 718.040 297.450, 706.500 309 M 656 360.500 C 651.903 364.625, 648.775 368, 649.050 368 C 649.325 368, 652.903 364.625, 657 360.500 C 661.097 356.375, 664.225 353, 663.950 353 C 663.675 353, 660.097 356.375, 656 360.500 M 657.992 380.750 L 635.500 403.500 658.250 381.008 C 679.389 360.109, 681.451 358, 680.742 358 C 680.600 358, 670.362 368.238, 657.992 380.750 M 630.989 385.750 L 614.500 402.500 631.250 386.011 C 640.462 376.943, 648 369.405, 648 369.261 C 648 368.548, 646.307 370.189, 630.989 385.750 M 587.500 452 C 575.960 463.550, 566.743 473, 567.018 473 C 567.293 473, 576.960 463.550, 588.500 452 C 600.040 440.450, 609.257 431, 608.982 431 C 608.707 431, 599.040 440.450, 587.500 452 M 563.491 454.250 L 543.500 474.500 563.750 454.509 C 582.565 435.935, 584.451 434, 583.741 434 C 583.598 434, 574.485 443.113, 563.491 454.250 M 145.310 484.500 C 145.315 487.800, 145.502 489.029, 145.725 487.232 C 145.947 485.435, 145.943 482.735, 145.715 481.232 C 145.486 479.729, 145.304 481.200, 145.310 484.500 M 161.336 489 C 161.336 493.125, 161.513 494.813, 161.728 492.750 C 161.944 490.688, 161.944 487.313, 161.728 485.250 C 161.513 483.188, 161.336 484.875, 161.336 489 M 481.962 498.274 L 487.423 503.992 371.962 504.250 L 256.500 504.508 372.750 504.754 C 436.688 504.889, 488.949 504.663, 488.887 504.250 C 488.825 503.837, 486.012 501.038, 482.637 498.029 L 476.500 492.557 481.962 498.274 M 808.750 504.749 C 819.888 504.910, 838.113 504.910, 849.250 504.749 C 860.388 504.588, 851.275 504.456, 829 504.456 C 806.725 504.456, 797.613 504.588, 808.750 504.749 M 161.320 516 C 161.320 519.575, 161.502 521.038, 161.723 519.250 C 161.945 517.462, 161.945 514.538, 161.723 512.750 C 161.502 510.962, 161.320 512.425, 161.320 516 M 145.336 520 C 145.336 524.125, 145.513 525.813, 145.728 523.750 C 145.944 521.688, 145.944 518.313, 145.728 516.250 C 145.513 514.188, 145.336 515.875, 145.336 520 M 380.246 520.750 L 503.991 521.008 504.250 632.254 L 504.509 743.500 504.754 631.750 L 505 520 380.750 520.246 L 256.500 520.492 380.246 520.750 M 766.483 633.500 C 766.483 696.200, 766.603 721.997, 766.750 690.827 C 766.896 659.657, 766.896 608.357, 766.750 576.827 C 766.603 545.297, 766.483 570.800, 766.483 633.500 M 782 625 C 782 682.933, 782.233 730.100, 782.518 729.815 C 783.178 729.155, 783.151 520.817, 782.491 520.158 C 782.221 519.888, 782 567.067, 782 625 M 388.750 758.750 L 504 759.008 504 806.949 L 504 854.890 499.250 855.265 L 494.500 855.640 499.750 855.820 L 505 856 505 807 L 505 758 389.250 758.246 L 273.500 758.492 388.750 758.750 M 263.500 774 C 266.766 777.300, 269.662 780, 269.937 780 C 270.212 780, 267.766 777.300, 264.500 774 C 261.234 770.700, 258.338 768, 258.063 768 C 257.788 768, 260.234 770.700, 263.500 774" stroke="none" fill="#151514" fill-rule="evenodd"/><path d="M 485.746 137.988 C 435.815 141.286, 393.295 152.604, 348.500 174.519 C 287.833 204.199, 237.891 248.588, 201.739 304.958 C 193.650 317.572, 178.823 346.415, 172.932 361 C 159.490 394.275, 150.359 431.335, 146.869 466.779 C 145.168 484.047, 145.468 526.626, 147.408 543.500 C 151.590 579.868, 160.723 614.777, 174.487 647 C 187.535 677.549, 209.598 713.166, 232.138 740.066 C 268.411 783.357, 312.242 816.355, 365.558 840.509 C 397.946 855.182, 433.940 864.708, 477.500 870.134 C 492.601 872.016, 535.323 871.731, 553.500 869.628 C 632.816 860.451, 703.039 828.086, 762 773.531 C 784.014 753.162, 801.399 732.701, 818.508 707.021 C 848.749 661.632, 868.264 611.153, 876.536 556.922 C 878.393 544.749, 880.928 517.924, 880.971 510 L 881.001 504.500 831.750 504.500 L 782.500 504.500 782 377.777 L 781.500 251.053 770.500 240.445 C 717.379 189.214, 648.782 154.798, 575.261 142.489 C 549.895 138.242, 511.290 136.301, 485.746 137.988 M 487.500 153.981 C 440.484 156.671, 395.042 168.830, 352.765 190.032 C 323.308 204.804, 299.720 221.028, 273 244.895 L 268.500 248.915 386.750 248.957 L 505 249 505 225.500 L 505 202 512.500 202 L 520 202 520 225.500 L 520 249 638.250 248.962 L 756.500 248.925 752.500 245.389 C 713.484 210.903, 678.775 190.415, 629.522 172.796 C 589.064 158.324, 535.535 151.233, 487.500 153.981 M 520 381.307 C 520 492.384, 520.086 498.049, 521.750 496.803 C 523.227 495.697, 586.547 431.807, 591 426.930 C 591.825 426.026, 610.509 407.110, 632.521 384.893 C 690.525 326.349, 746.121 269.886, 748.605 267 L 750.757 264.500 635.378 264.500 L 520 264.500 520 381.307 M 323.522 317.015 C 374.483 368.013, 503.654 497.096, 504.547 497.917 C 504.796 498.146, 505 445.833, 505 381.667 L 505 265 388.272 265 L 271.544 265 323.522 317.015 M 701.516 336.651 C 665.775 372.868, 621.004 418.250, 602.025 437.500 C 583.046 456.750, 556.826 483.277, 543.758 496.449 L 520 520.397 520 688.345 L 520 856.294 531.711 855.593 C 599.575 851.536, 663.748 828.661, 717.907 789.221 C 733.007 778.225, 746.144 767.216, 757.250 756.249 L 767 746.621 767 633.311 L 767 520 731 520 L 695 520 695 512.500 L 695 505 730.531 505 C 758.036 505, 766.170 504.718, 766.539 503.750 C 766.801 503.063, 766.899 450.368, 766.757 386.651 L 766.500 270.802 701.516 336.651 M 257 388.624 L 257 505 373 505 C 436.800 505, 488.992 504.887, 488.983 504.750 C 488.973 504.613, 436.773 452.243, 372.983 388.374 L 257 272.249 257 388.624 M 236 284.498 C 201.806 325.822, 174.724 387.525, 165.553 445 C 154.034 517.197, 164.412 589.996, 195.420 654.500 C 206.321 677.178, 216.288 693.376, 233.432 716.276 L 241.500 727.053 241.754 615.106 C 241.894 553.536, 241.894 452.466, 241.754 390.506 L 241.500 277.851 236 284.498 M 257 631.500 L 257 743 381 743 L 505 743 505 631.500 L 505 520 381 520 L 257 520 257 631.500 M 782 625.200 C 782 683.060, 782.378 729.972, 782.839 729.450 C 786.254 725.586, 797.919 709.677, 803.699 701 C 830.325 661.031, 847.779 619.851, 857.393 574.314 C 860.477 559.711, 864 533.882, 864 525.884 L 864 520 823 520 L 782 520 782 625.200 M 272.128 759.672 C 272.882 760.591, 278.023 765.232, 283.551 769.984 C 332.817 812.339, 392.414 840.458, 454.115 850.461 C 469.160 852.899, 495.946 856, 501.972 856 L 505 856 505 807 L 505 758 387.878 758 C 278.540 758, 270.846 758.111, 272.128 759.672" stroke="none" fill="#040404" fill-rule="evenodd"/></svg>